<svg width="460" height="307" viewBox="0 0 460 307" fill="none" xmlns="http://www.w3.org/2000/svg">
<path d="M270.455 8.59351C270.272 9.53242 270.202 10.5657 270.267 11.703C271.042 25.2647 292.385 30.1082 301.749 31.0769C305.825 32.0173 313.227 31.82 317.628 29.1481C303.323 41.6269 291.095 64.6495 287.074 74.5472C318.556 99.2491 306.932 144.294 318.557 193.697C334.618 261.956 413.973 266.349 444.487 266.349C462.408 266.35 483.719 293.987 388.787 297.348C301.217 300.447 270.606 244.392 266.247 215.977C257.044 229.055 228.952 257.631 175.189 287.661C121.427 317.69 18.7459 308.003 2.76137 290.082C-13.2221 272.161 42.9623 262.475 99.6311 244.069C156.3 225.664 185.361 192.244 195.532 144.293C203.669 105.933 234.441 77.9377 248.81 68.735C248.81 64.3759 249.779 52.3639 253.654 39.1898C257.224 27.0507 265.73 14.5283 270.455 8.59351Z" fill="#FCE683"/>
<path d="M266.247 215.977C270.607 244.392 301.218 297.541 388.787 294.442C440.956 292.595 458.018 283.416 459.832 275.522C461.764 283.892 447.532 295.268 388.787 297.348C301.218 300.447 270.607 244.392 266.247 215.977C257.044 229.055 228.952 257.631 175.19 287.661C121.427 317.69 18.7465 308.003 2.76156 290.082C0.400827 287.435 -0.385519 284.968 0.171425 282.626C0.509325 284.087 1.3555 285.6 2.76156 287.176C18.7465 305.097 121.427 314.784 175.19 284.755C228.952 254.725 257.044 229.055 266.247 215.977Z" fill="#FDECA1"/>
<path d="M317.628 29.1481C304.285 40.7881 292.749 61.6024 287.995 72.3809C287.692 72.1327 287.385 71.8854 287.074 71.6411C290.628 62.8944 300.59 43.898 312.731 30.9861C314.531 30.5939 316.231 29.9963 317.628 29.1481Z" fill="#FDECA1"/>
<path d="M270.455 8.59351C270.4 8.87502 270.356 9.16507 270.322 9.46382C270.299 9.25502 270.281 9.04405 270.269 8.83095C270.332 8.75103 270.393 8.67118 270.455 8.59351Z" fill="#FDECA1"/>
<path d="M314.655 171.676C320.232 180.622 328.551 188.203 340.837 191.275C370.382 198.661 412.52 179.65 427.051 200.477C441.922 221.793 389.327 235.858 336.851 229.765C328.53 220.352 322.048 208.534 318.557 193.697C316.802 186.239 315.579 178.88 314.655 171.676Z" fill="#F8CC07"/>
<path d="M314.011 172.188C313.686 179.209 316.032 185.145 317.588 191.759C321.079 206.596 326.594 218.415 334.914 227.827C380.37 233.105 427.849 223.258 429.557 206.675C431.343 224.418 384.051 235.245 336.851 229.765C328.531 220.352 322.048 208.534 318.557 193.697C316.802 186.239 315.578 178.88 314.655 171.676C314.761 171.847 313.902 172.017 314.011 172.188Z" fill="#EAC007"/>
<path d="M190.094 163.663C181.358 188.13 166.359 208.051 143.585 223.345C138.842 223.466 134.03 223.444 129.176 223.242C71.0541 220.82 53.6179 202.415 57.008 187.4C60.3981 172.385 120.562 186.146 161.627 176.26C173.705 173.353 182.959 168.945 190.094 163.663Z" fill="#FBE16A"/>
<path d="M184.528 176.906C175.478 195.416 162.101 210.91 143.585 223.345C138.842 223.466 134.029 223.444 129.175 223.242C71.0539 220.82 53.6181 202.415 57.0076 187.4C57.1904 186.591 57.5389 185.865 58.0397 185.215C58.0174 185.297 57.9952 185.379 57.9763 185.463C54.5869 200.478 72.0236 218.883 130.144 221.305C134.999 221.507 139.811 221.528 144.555 221.408C162.421 209.409 175.502 194.562 184.528 176.906Z" fill="#FCE683"/>
<path d="M270.266 11.7028C269.491 -1.85898 287.541 -0.728849 295.937 1.0471C305.624 4.43754 319.67 11.2184 321.123 22.3584C322.285 31.2705 308.045 32.5297 301.749 31.0767C292.385 30.108 271.041 25.2645 270.266 11.7028Z" fill="#7C6603"/>
<path d="M309.666 7.48267C315.465 11.1678 320.302 16.0677 321.123 22.3586C322.285 31.2705 308.045 32.5295 301.749 31.0764C297.511 30.6381 290.822 29.4056 284.695 26.9319C294.198 25.2464 304.293 22.2443 307.077 17.4368C308.752 14.5428 309.482 11.0049 309.666 7.48267Z" fill="#816A03"/>
<path d="M287.578 27.9966C292.84 29.7696 298.17 30.7065 301.749 31.0767C305.825 32.0171 313.227 31.8198 317.628 29.1479C303.323 41.6267 291.095 64.6493 287.074 74.547C318.556 99.2489 306.932 144.293 318.557 193.697C334.618 261.956 413.973 266.349 444.487 266.349C462.408 266.349 483.719 293.987 388.787 297.347C301.217 300.447 270.606 244.392 266.247 215.977C264.681 218.202 268.94 212.923 266.247 215.977C294.321 171.868 282.553 119.582 275.594 76.527C272.921 59.9873 278.617 43.0938 287.578 27.9966Z" fill="#FBE065"/>
<path d="M267.216 214.04C271.575 242.455 302.186 298.51 389.756 295.41C436.242 293.765 454.853 286.296 459.639 279.104C457.019 286.838 439.472 295.553 388.787 297.347C301.217 300.447 270.606 244.392 266.247 215.977C264.681 218.202 262.568 220.876 259.875 223.929C260.859 222.8 261.274 222.316 262.033 221.417C264.05 218.926 266.247 215.977 267.216 214.04Z" fill="#FBDB51"/>
<path d="M317.628 29.1479C306.592 38.7747 296.793 54.6768 291.044 65.9868C296.1 55.6777 305.044 40.547 315.383 30.2188C316.188 29.9181 316.944 29.5631 317.628 29.1479Z" fill="#FBDB51"/>
</svg>
