<svg width="238" height="147" viewBox="0 0 238 147" fill="none" xmlns="http://www.w3.org/2000/svg">
<g style="mix-blend-mode:multiply" opacity="0.25" filter="url(#filter0_f_29_57)">
<path d="M143.102 31.4763C143.804 30.8326 145.157 30.3862 147.252 30.8669C148.248 30.9398 150.403 31.6521 151.055 32.1755C151.87 32.8299 153.385 34.5906 154.743 34.5906C154.661 34.7402 154.509 34.8888 154.304 35.0349C154.205 35.1423 154.079 35.2436 153.929 35.3386V42.2253C153.928 48.5511 144.421 63.6012 140.89 69.4909C140.761 69.7051 140.64 69.9239 140.524 70.1452C140.467 70.2521 140.413 70.3601 140.36 70.4685C140.254 70.6818 140.153 70.8974 140.058 71.1159C139.893 71.5259 139.744 71.9437 139.61 72.3669C139.599 72.3988 139.589 72.4307 139.579 72.4626C139.535 72.6036 139.494 72.7453 139.453 72.8874C139.399 73.2158 139.351 73.5562 139.313 73.904C139.308 73.9433 139.304 73.9827 139.3 74.0222C139.276 74.25 139.257 74.4809 139.241 74.7136C139.239 74.7432 139.238 74.7728 139.236 74.8025C139.215 75.1679 139.204 75.5375 139.207 75.907C139.661 75.8336 140.121 75.7591 140.586 75.6853C141.022 75.6162 141.462 75.5487 141.906 75.4792C142.006 75.4636 142.107 75.448 142.207 75.4324C143.113 75.2913 144.036 75.1491 144.974 75.0076C145.013 75.0017 145.052 74.9959 145.091 74.99C146.047 74.8458 147.018 74.7029 147.999 74.5593C148.084 74.5469 148.168 74.5346 148.253 74.5222C149.177 74.3874 150.11 74.2523 151.05 74.1189C151.184 74.0998 151.319 74.0813 151.453 74.0622C152.041 73.9792 152.631 73.8945 153.223 73.8122C155.425 73.5064 157.652 73.2074 159.869 72.9197C160.123 72.8867 160.377 72.8547 160.631 72.822C160.96 72.7796 161.29 72.7389 161.618 72.697C162.311 72.6089 163.001 72.5207 163.689 72.4353C164.087 72.3857 164.485 72.3374 164.882 72.2888C165.617 72.1988 166.348 72.1095 167.073 72.0232C167.274 71.9993 167.474 71.9764 167.673 71.9529C168.483 71.8573 169.285 71.7638 170.078 71.6736C170.461 71.63 170.842 71.5879 171.221 71.5456C171.845 71.476 172.462 71.4073 173.072 71.3415C173.454 71.3004 173.833 71.2619 174.208 71.2224C174.823 71.1577 175.429 71.0931 176.026 71.0329C176.448 70.9904 176.865 70.9511 177.277 70.9109C177.765 70.8634 178.245 70.8152 178.717 70.7712C179.46 70.7021 180.183 70.6388 180.886 70.5788C181.025 70.5669 181.164 70.5542 181.302 70.5427C182.089 70.4769 182.848 70.4179 183.575 70.365C183.638 70.3604 183.701 70.3548 183.764 70.3503C183.982 70.3347 184.197 70.3198 184.409 70.3054C184.652 70.2889 184.891 70.2733 185.126 70.2585C185.424 70.2398 185.716 70.2218 186 70.2058C186.467 70.1795 186.924 70.1576 187.37 70.1394C187.449 70.1362 187.527 70.1345 187.605 70.1316C187.978 70.1174 188.344 70.1042 188.702 70.0954C188.76 70.094 188.817 70.0938 188.874 70.0925C189.632 70.0758 190.358 70.0707 191.053 70.0769C191.231 70.0785 191.408 70.0817 191.582 70.0847C191.794 70.0883 192.003 70.0927 192.209 70.0984C192.372 70.1029 192.533 70.1092 192.693 70.115C192.889 70.1221 193.083 70.1295 193.275 70.1384C193.416 70.145 193.555 70.1524 193.694 70.1599C193.899 70.1711 194.102 70.1827 194.301 70.196C194.442 70.2054 194.581 70.2159 194.719 70.2263C194.903 70.2402 195.084 70.2546 195.263 70.2702C195.383 70.2808 195.502 70.2921 195.62 70.3034C195.817 70.3224 196.01 70.3421 196.2 70.363C196.311 70.3752 196.42 70.3873 196.528 70.4001C196.692 70.4196 196.853 70.4398 197.011 70.4607C197.144 70.4782 197.274 70.4959 197.403 70.5144C197.549 70.5353 197.693 70.5577 197.834 70.5798C197.949 70.5977 198.062 70.6159 198.173 70.6345C198.318 70.6587 198.46 70.6843 198.6 70.7097C198.712 70.7302 198.823 70.75 198.933 70.7712C199.058 70.7954 199.18 70.8203 199.301 70.8454C199.408 70.8677 199.514 70.8889 199.617 70.9118C199.757 70.9427 199.894 70.9755 200.028 71.0076C200.112 71.0274 200.194 71.0468 200.276 71.0671C200.39 71.0958 200.503 71.1256 200.613 71.155C200.708 71.18 200.801 71.2037 200.892 71.2292C200.99 71.2567 201.085 71.2862 201.18 71.3142C201.278 71.3432 201.374 71.3706 201.469 71.4001C201.826 71.5119 202.159 71.628 202.468 71.7458C202.558 71.7802 202.646 71.8156 202.733 71.8503C202.798 71.8768 202.863 71.9018 202.927 71.9284C203.006 71.9614 203.082 71.9959 203.157 72.029C203.223 72.058 203.288 72.0859 203.352 72.115C203.429 72.1504 203.503 72.1879 203.576 72.2234C203.619 72.244 203.662 72.2632 203.703 72.2839L203.787 72.3259C203.824 72.3446 203.86 72.3639 203.896 72.3826C203.968 72.4205 204.04 72.4579 204.109 72.4958C204.152 72.5199 204.195 72.5441 204.237 72.5681C204.305 72.6066 204.371 72.6451 204.435 72.6833C204.477 72.7087 204.518 72.7352 204.559 72.7605C204.616 72.7961 204.672 72.8307 204.727 72.8659C204.754 72.8838 204.781 72.9019 204.808 72.9197C204.875 72.9643 204.939 73.0086 205.001 73.0525C205.038 73.0787 205.074 73.1047 205.11 73.1306C205.145 73.1568 205.18 73.1829 205.214 73.2087C205.258 73.2421 205.301 73.2746 205.342 73.3074C205.372 73.3309 205.401 73.3544 205.429 73.3777C205.453 73.3973 205.477 73.4159 205.5 73.4353C205.568 73.4922 205.631 73.548 205.691 73.6023C205.705 73.6153 205.719 73.6285 205.733 73.6413C205.742 73.65 205.751 73.6591 205.76 73.6677C205.794 73.6994 205.827 73.7299 205.858 73.7605C205.915 73.8175 205.968 73.8728 206.018 73.9255C206.023 73.9309 206.028 73.9358 206.033 73.9411C206.04 73.9449 206.046 73.9491 206.052 73.9529C206.091 73.9763 206.128 74.0014 206.166 74.0271C206.185 74.0398 206.203 74.0529 206.222 74.0661C206.267 74.0982 206.311 74.1317 206.355 74.1667C206.368 74.1773 206.381 74.1881 206.394 74.199C206.434 74.2323 206.474 74.2659 206.513 74.3015C206.533 74.3204 206.553 74.3406 206.573 74.3601C206.754 74.5338 206.92 74.7309 207.069 74.9451C207.078 74.9594 207.089 74.9735 207.099 74.988C207.174 75.1003 207.244 75.2171 207.31 75.3367C207.325 75.3639 207.339 75.3912 207.354 75.4187C207.375 75.4598 207.396 75.501 207.416 75.5427C207.433 75.5782 207.449 75.6143 207.465 75.6501C207.531 75.7982 207.589 75.9491 207.638 76.1013C207.649 76.1371 207.661 76.1728 207.671 76.2087C207.68 76.2399 207.688 76.2712 207.696 76.3025C207.71 76.3526 207.722 76.4027 207.734 76.4529C207.739 76.4773 207.744 76.5017 207.749 76.5261C207.76 76.5813 207.77 76.6363 207.778 76.6911C207.782 76.7173 207.787 76.7432 207.79 76.7693C207.796 76.8137 207.801 76.858 207.805 76.9021C207.808 76.9358 207.811 76.9692 207.813 77.0027C207.826 77.2293 207.812 77.4493 207.772 77.657C207.768 77.6756 207.764 77.6942 207.76 77.7126C207.749 77.762 207.736 77.8104 207.722 77.8581C207.714 77.8828 207.707 77.9072 207.698 77.9314C207.685 77.971 207.669 78.0094 207.652 78.0476C207.641 78.0739 207.631 78.1001 207.618 78.1257C207.596 78.1724 207.571 78.2173 207.544 78.2615C207.538 78.2712 207.533 78.2811 207.527 78.2908C207.483 78.3596 207.435 78.4252 207.381 78.487C207.349 78.5241 207.315 78.5602 207.278 78.5945C207.275 78.5978 207.271 78.6009 207.268 78.6042C207.229 78.6405 207.187 78.6749 207.144 78.7077C207.13 78.7181 207.116 78.728 207.102 78.738C207.058 78.7686 207.013 78.7977 206.965 78.8249C206.955 78.8305 206.945 78.8351 206.935 78.8406C206.892 78.8636 206.849 78.8857 206.803 78.906C206.788 78.9127 206.773 78.9201 206.757 78.9265C206.699 78.9504 206.639 78.9716 206.575 78.9909C206.568 78.9933 206.56 78.9955 206.552 78.9978C206.488 79.0166 206.422 79.0336 206.353 79.0476C206.338 79.0507 206.322 79.0535 206.307 79.0564C206.237 79.0691 206.166 79.0798 206.091 79.0876C206.089 79.0878 206.088 79.0884 206.086 79.0886C204.81 79.2196 203.503 79.3593 202.169 79.5046C193.468 80.4527 183.642 81.6746 174.129 82.8103C174.061 82.8184 173.994 82.8266 173.926 82.8347C172.604 82.9925 171.288 83.1473 169.982 83.3005C169.625 83.3423 169.27 83.3842 168.915 83.4255C167.733 83.5634 166.561 83.6986 165.401 83.8308C164.963 83.8807 164.526 83.9294 164.092 83.9783C163.047 84.0959 162.013 84.2107 160.992 84.322C160.48 84.3779 159.97 84.4329 159.464 84.487C155.419 84.9198 151.603 85.294 148.155 85.571C148.081 85.577 148.007 85.5827 147.933 85.5886C146.757 85.6822 145.624 85.7643 144.541 85.8337C144.488 85.8371 144.435 85.8401 144.382 85.8435C143.878 85.8753 143.386 85.9053 142.904 85.9314C142.827 85.9356 142.749 85.939 142.672 85.9431C142.209 85.9675 141.757 85.9889 141.316 86.0076C141.238 86.0108 141.161 86.0142 141.084 86.0173C140.658 86.0345 140.242 86.0488 139.838 86.0603C139.749 86.0628 139.66 86.0639 139.572 86.0661C139.184 86.076 138.807 86.0844 138.442 86.0886C138.424 86.0888 138.407 86.0894 138.39 86.0896C138.383 86.3609 138.374 86.6107 138.358 86.8367C138.355 86.872 138.355 86.907 138.352 86.9411C138.135 89.5591 148.222 102.282 153.293 108.317C153.316 108.405 153.336 108.493 153.359 108.581C153.399 108.738 153.438 108.895 153.475 109.051C153.514 109.218 153.553 109.384 153.588 109.55C153.6 109.607 153.61 109.666 153.622 109.723C153.65 109.861 153.676 109.997 153.7 110.133C153.71 110.188 153.721 110.243 153.731 110.298C153.759 110.464 153.783 110.63 153.805 110.794C153.975 112.077 153.93 113.253 153.469 114.193H153.47C153.453 114.243 153.438 114.294 153.419 114.343C153.384 114.434 153.345 114.522 153.304 114.608C153.288 114.641 153.27 114.673 153.253 114.705C153.225 114.759 153.197 114.813 153.166 114.865C153.147 114.897 153.126 114.927 153.106 114.959C153.074 115.009 153.042 115.059 153.007 115.107C152.983 115.141 152.956 115.172 152.931 115.205C152.897 115.248 152.863 115.291 152.827 115.333C152.796 115.368 152.763 115.402 152.731 115.436C152.695 115.473 152.66 115.511 152.622 115.547C152.585 115.582 152.547 115.615 152.508 115.649C152.471 115.681 152.434 115.714 152.396 115.745C152.354 115.778 152.311 115.809 152.267 115.841C152.224 115.872 152.18 115.903 152.135 115.933C152.09 115.963 152.044 115.991 151.997 116.019C151.953 116.046 151.909 116.072 151.862 116.097C151.806 116.129 151.748 116.159 151.688 116.188C151.644 116.21 151.599 116.23 151.553 116.251C151.497 116.276 151.44 116.301 151.381 116.325C151.319 116.35 151.256 116.372 151.192 116.395C151.137 116.415 151.082 116.435 151.025 116.454C150.957 116.476 150.888 116.495 150.818 116.515C150.763 116.531 150.709 116.547 150.652 116.561C150.57 116.582 150.485 116.6 150.399 116.619C150.342 116.631 150.286 116.644 150.228 116.655C150.149 116.67 150.068 116.682 149.986 116.695C149.918 116.706 149.849 116.719 149.778 116.728C149.678 116.742 149.576 116.752 149.471 116.762C149.417 116.768 149.363 116.775 149.308 116.78C149.141 116.794 148.969 116.806 148.791 116.813C148.609 116.821 148.419 116.825 148.224 116.825C147.838 116.825 147.468 116.817 147.111 116.804C146.632 116.788 146.178 116.762 145.744 116.725C145.712 116.723 145.679 116.719 145.647 116.717C145.493 116.703 145.341 116.688 145.193 116.672C145.129 116.665 145.065 116.657 145.002 116.649C144.899 116.637 144.797 116.625 144.696 116.612C144.571 116.595 144.447 116.576 144.324 116.557C144.282 116.551 144.24 116.545 144.198 116.539C144.069 116.518 143.942 116.496 143.817 116.473C143.782 116.467 143.747 116.461 143.712 116.455C143.607 116.435 143.503 116.413 143.401 116.392C143.341 116.38 143.281 116.369 143.222 116.356C143.124 116.335 143.028 116.312 142.932 116.29C142.877 116.277 142.822 116.264 142.768 116.251C142.686 116.231 142.605 116.21 142.525 116.189C142.455 116.171 142.385 116.153 142.317 116.135C142.23 116.111 142.144 116.086 142.059 116.061C142 116.044 141.943 116.027 141.885 116.01C141.811 115.987 141.737 115.964 141.664 115.941C141.596 115.92 141.529 115.898 141.462 115.876C141.376 115.847 141.29 115.818 141.205 115.788C141.158 115.771 141.111 115.755 141.064 115.738C140.968 115.704 140.872 115.667 140.777 115.632C140.75 115.621 140.721 115.611 140.694 115.6C140.586 115.559 140.479 115.517 140.372 115.474C140.339 115.461 140.306 115.448 140.274 115.434C140.194 115.401 140.114 115.368 140.034 115.334C139.983 115.312 139.933 115.29 139.882 115.268C139.661 115.172 139.441 115.073 139.221 114.969C139.109 114.917 138.998 114.863 138.886 114.808C138.741 114.738 138.595 114.668 138.449 114.595C138.315 114.528 138.181 114.459 138.045 114.389C137.907 114.319 137.768 114.248 137.628 114.176C137.456 114.086 137.282 113.994 137.106 113.901C135.907 113.268 134.6 112.562 133.011 111.808C127.035 108.973 118.071 98.0664 116.169 91.9587C116.012 91.4538 115.914 90.9091 115.864 90.3347C115.856 90.2385 115.849 90.1415 115.843 90.0437C115.839 89.9728 115.836 89.9015 115.833 89.8298C115.83 89.7322 115.826 89.6339 115.825 89.5349C115.825 89.4601 115.825 89.3849 115.825 89.3093C115.826 89.2119 115.828 89.114 115.831 89.0154C115.834 88.9254 115.837 88.8349 115.842 88.7439C115.846 88.6658 115.851 88.5873 115.857 88.5085C115.864 88.4056 115.871 88.302 115.88 88.198C115.887 88.1237 115.894 88.0492 115.902 87.9743C115.912 87.8668 115.924 87.7587 115.937 87.6501C115.95 87.5418 115.965 87.4332 115.981 87.324C115.992 87.2403 116.003 87.1562 116.016 87.072C116.032 86.9659 116.05 86.8595 116.069 86.7527C116.2 85.9738 116.379 85.177 116.593 84.3777C116.602 84.3445 116.61 84.3112 116.619 84.2781C116.667 84.1036 116.716 83.9292 116.767 83.7546C116.104 84.7224 115.256 85.7365 114.176 86.7527C114.15 86.7768 114.125 86.8008 114.099 86.8249C113.962 86.9522 113.822 87.0796 113.678 87.2068C113.643 87.2375 113.608 87.2678 113.572 87.2986C113.437 87.417 113.298 87.5359 113.155 87.654C113.105 87.6959 113.053 87.7372 113.002 87.779C111.597 88.9223 109.875 90.0487 107.762 91.0876C107.749 91.0938 107.736 91.0991 107.724 91.1052C107.194 91.3649 106.64 91.6191 106.06 91.8669C106.044 91.8736 106.029 91.8807 106.013 91.8874C105.727 92.0089 105.436 92.1285 105.138 92.2468C105.122 92.2533 105.105 92.2599 105.089 92.2663C104.486 92.5049 103.857 92.7369 103.201 92.9607C103.18 92.968 103.158 92.9749 103.137 92.9822C102.819 93.0901 102.495 93.1964 102.164 93.3005C102.133 93.3103 102.102 93.32 102.07 93.3298C101.742 93.4325 101.408 93.5339 101.067 93.6326C101.035 93.6416 101.004 93.6499 100.973 93.6589C99.8941 93.9687 98.7519 94.258 97.5421 94.5232C97.5006 94.5323 97.4589 94.5415 97.4171 94.5505C97.0515 94.6298 96.6799 94.7071 96.3019 94.782C96.2215 94.7979 96.1407 94.8131 96.0597 94.8288C95.2756 94.981 94.4651 95.1239 93.6271 95.2556C93.5596 95.2662 93.4918 95.2764 93.424 95.2868C93.0287 95.3479 92.6274 95.4064 92.2199 95.4626C92.1248 95.4757 92.0295 95.4888 91.9337 95.5017C91.5166 95.5577 91.0932 95.612 90.6632 95.6628C90.6535 95.664 90.6437 95.6656 90.6339 95.6667C90.5989 95.6709 90.5635 95.6753 90.5285 95.6794C70.2093 98.0968 53.1505 107.219 48.0461 107.226C48.0441 107.226 48.0421 107.227 48.0402 107.227L48.0392 107.226V107.227C47.7848 107.227 47.5381 107.223 47.299 107.215C47.2853 107.214 47.2716 107.214 47.258 107.214C47.1776 107.211 47.0983 107.205 47.0197 107.201C46.9791 107.199 46.9387 107.197 46.8986 107.195C46.8289 107.191 46.7599 107.186 46.6916 107.18C46.6394 107.176 46.5876 107.173 46.5363 107.169C46.4341 107.16 46.3336 107.149 46.2345 107.137C46.2257 107.136 46.2169 107.136 46.2082 107.135C45.8969 107.098 45.6017 107.048 45.3214 106.985C45.2924 106.979 45.2633 106.972 45.2345 106.966C45.15 106.945 45.0672 106.923 44.9855 106.9C44.9774 106.898 44.9692 106.896 44.9611 106.893C44.8734 106.868 44.7877 106.841 44.7033 106.812C44.6952 106.809 44.6869 106.807 44.6789 106.804C44.1309 106.616 43.6534 106.352 43.2414 105.991C43.0621 105.873 42.8906 105.737 42.7267 105.582C42.7197 105.575 42.7122 105.569 42.7052 105.562C42.4985 105.364 42.3057 105.134 42.13 104.87C42.1069 104.835 42.0842 104.799 42.0617 104.763C42.0312 104.715 42.0011 104.665 41.9718 104.614C41.9386 104.556 41.9069 104.497 41.8752 104.436C41.8357 104.361 41.7979 104.283 41.7609 104.203C41.7373 104.152 41.7131 104.1 41.6906 104.048C41.6708 104.001 41.6519 103.954 41.633 103.906C41.6022 103.828 41.5726 103.748 41.5441 103.667C41.5316 103.631 41.5181 103.595 41.506 103.558C41.4679 103.443 41.4322 103.323 41.3986 103.2C41.3866 103.156 41.3758 103.111 41.3644 103.066C41.3424 102.979 41.3216 102.89 41.3019 102.8C41.289 102.74 41.2758 102.679 41.2638 102.618C41.2466 102.53 41.232 102.439 41.2169 102.347C41.2095 102.302 41.1994 102.257 41.1925 102.211C41.1002 101.593 41.3237 100.944 41.8078 100.277C42.0935 99.8831 42.4699 99.4826 42.9279 99.0788C43.3163 98.7364 43.7628 98.3916 44.2609 98.0456C44.4238 97.9325 44.5921 97.8191 44.7658 97.7058C45.2355 97.3995 45.7437 97.0926 46.2863 96.7868C46.4526 96.6931 46.6225 96.6001 46.7951 96.5066C46.9886 96.4017 47.1858 96.2967 47.3869 96.1921C47.7251 96.0163 48.0735 95.8403 48.4318 95.6658C48.6657 95.5518 48.9038 95.4382 49.1457 95.3249C49.3458 95.2312 49.5488 95.1379 49.7541 95.0447C50.4371 94.7345 51.1487 94.43 51.882 94.1277C52.3546 93.9328 52.8363 93.7393 53.3263 93.5486C54.5625 93.0674 55.8496 92.6003 57.1662 92.1531C57.8598 91.9174 58.561 91.6856 59.2677 91.4617C60.3757 91.1106 61.4954 90.7738 62.6154 90.4568C63.5103 90.2034 64.4055 89.9632 65.2941 89.7351C66.8849 89.3267 68.4553 88.9605 69.9699 88.6472C71.1056 88.4123 72.2102 88.2094 73.2677 88.0368C74.4082 87.8508 75.4939 87.6997 76.507 87.5954C77.5847 87.4845 78.7393 87.3609 79.9445 87.2175C80.537 87.1469 81.142 87.0727 81.756 86.99C82.8438 86.8435 83.96 86.6742 85.088 86.4773C85.3378 86.4336 85.5883 86.3891 85.839 86.3425C86.4162 86.2353 86.9955 86.1211 87.5744 85.9968L75.7941 84.1443L32.8732 71.2751C32.7293 71.2504 32.5919 71.2207 32.4601 71.1902C32.4407 71.1857 32.4217 71.1801 32.4025 71.1755C32.3012 71.1511 32.2037 71.125 32.1095 71.0974C32.0712 71.0862 32.0334 71.0749 31.9962 71.0632C31.9104 71.0362 31.8279 71.0078 31.7482 70.9783C31.726 70.97 31.7035 70.9632 31.6818 70.9548C31.4771 70.8757 31.2934 70.7888 31.1291 70.696C31.104 70.6819 31.08 70.6665 31.0558 70.6521C30.9926 70.6143 30.9323 70.5762 30.8752 70.5368C30.8604 70.5267 30.8456 70.5169 30.8312 70.5066C30.7724 70.4645 30.7173 70.4213 30.6652 70.3777C30.6545 70.3687 30.6434 70.3603 30.633 70.3513C30.5715 70.2982 30.5151 70.2439 30.463 70.1892C30.4563 70.1821 30.4501 70.1748 30.4435 70.1677C30.3999 70.1206 30.3602 70.0729 30.3234 70.0251C30.3129 70.0115 30.3031 69.9977 30.2931 69.9841C30.263 69.9428 30.2354 69.9016 30.2101 69.8601C30.2005 69.8443 30.1907 69.829 30.1818 69.8132C30.0857 69.643 30.0289 69.473 30.008 69.3093C30.0071 69.3025 30.0068 69.2956 30.006 69.2888C29.9876 69.1214 30.0051 68.962 30.0568 68.8181C30.0522 68.7681 30.0515 68.7176 30.0539 68.6667C30.0547 68.6476 30.0559 68.6284 30.0578 68.6091C30.059 68.5967 30.061 68.5844 30.0627 68.572C30.0659 68.5467 30.0694 68.5213 30.0744 68.4958C30.0768 68.4835 30.0794 68.4711 30.0822 68.4587C30.085 68.4463 30.0887 68.4341 30.0919 68.4216C30.1045 68.3736 30.1202 68.3255 30.1388 68.2771C30.143 68.2662 30.146 68.2548 30.1505 68.2439C30.1748 68.1851 30.205 68.127 30.2384 68.0681C30.2413 68.0631 30.2433 68.0575 30.2462 68.0525C30.3162 67.9319 30.405 67.8113 30.5138 67.6921C30.5205 67.6848 30.5275 67.6779 30.5343 67.6706C30.6424 67.5551 30.7686 67.4406 30.9142 67.3288C30.9318 67.3154 30.9498 67.3022 30.9679 67.2888C31.1172 67.1783 31.2854 67.0706 31.4728 66.9665C31.4838 66.9604 31.4948 66.9541 31.506 66.948C31.6023 66.8953 31.7034 66.8432 31.8097 66.7927C31.8181 66.7887 31.8267 66.785 31.8351 66.781C31.9303 66.7362 32.0298 66.693 32.133 66.6501C32.1601 66.6389 32.1873 66.6271 32.215 66.6159C32.323 66.5726 32.4354 66.531 32.5519 66.49C32.5745 66.482 32.5974 66.4744 32.6203 66.4665C32.8788 66.3777 33.1573 66.2933 33.4572 66.2175C33.4788 66.212 33.5008 66.2073 33.5226 66.2019C33.8354 66.1246 34.1706 66.0555 34.5285 65.9949C34.5347 65.9938 34.5408 65.992 34.547 65.9909C34.7204 65.9618 34.8991 65.9347 35.0832 65.9099C35.1271 65.904 35.1714 65.899 35.216 65.8933C35.3599 65.875 35.507 65.858 35.6574 65.8425C35.7011 65.838 35.745 65.8331 35.7892 65.8288C35.9484 65.8135 36.1112 65.7999 36.2775 65.7878L36.4005 65.779C36.4355 65.7767 36.4707 65.7754 36.506 65.7732C36.6825 65.7622 36.8628 65.7521 37.047 65.7449C37.0688 65.744 37.0906 65.7427 37.1125 65.7419C37.3316 65.7339 37.5562 65.7297 37.7863 65.7273C37.8255 65.7269 37.8649 65.7266 37.9044 65.7263C38.3765 65.7233 38.8715 65.7315 39.3898 65.7536C39.4148 65.7547 39.4399 65.7564 39.465 65.7576C39.7229 65.7691 39.9866 65.7833 40.256 65.8015C40.2869 65.8036 40.3178 65.8062 40.3488 65.8083C40.6044 65.8263 40.8651 65.8477 41.131 65.8718C41.158 65.8743 41.185 65.8761 41.2121 65.8786C42.0976 65.9608 43.0403 66.0785 44.0421 66.2351C44.1083 66.2454 44.1747 66.2557 44.2414 66.2663C44.5314 66.3128 44.8263 66.3626 45.1261 66.4158C45.1511 66.4202 45.1763 66.424 45.2013 66.4284C45.5336 66.4878 45.8717 66.552 46.216 66.6199C46.2722 66.6309 46.3284 66.6427 46.3849 66.654C46.7137 66.7198 47.0481 66.7884 47.3878 66.862C47.4056 66.8659 47.4238 66.8699 47.4416 66.8738C47.5692 66.9015 47.6969 66.9282 47.8244 66.9558C53.2446 68.1301 58.5494 69.1564 63.758 70.1286C65.227 70.4029 66.6886 70.6723 68.1427 70.9402C75.9152 72.3719 83.4811 73.7441 90.9054 75.3806C92.7827 75.7944 94.5255 76.1677 96.1476 76.4949C98.7945 77.0279 101.121 77.4355 103.188 77.6931C103.372 77.4364 103.549 77.173 103.716 76.9021C102.831 76.1805 101.922 75.3187 101.055 74.3171C101.029 74.2868 101.002 74.2569 100.976 74.2263C100.916 74.156 100.856 74.085 100.796 74.0134C100.738 73.9442 100.681 73.8739 100.624 73.8034C100.544 73.7045 100.464 73.6041 100.385 73.5027C100.323 73.4229 100.26 73.3428 100.198 73.2615C100.133 73.1756 100.069 73.0883 100.005 73.0007C99.9691 72.9518 99.9332 72.9027 99.8976 72.8533C99.843 72.7773 99.7885 72.7009 99.7345 72.6238C99.6468 72.4984 99.5595 72.3717 99.4738 72.2429C99.4276 72.1736 99.3826 72.1032 99.3371 72.0329C99.2756 71.9381 99.2147 71.8424 99.1544 71.7458C99.1142 71.6814 99.074 71.6167 99.0343 71.5515C98.9759 71.4555 98.9187 71.3582 98.8615 71.2605C98.8067 71.1668 98.752 71.0725 98.6984 70.9773C98.6277 70.8517 98.558 70.7247 98.4894 70.5964C98.4643 70.5494 98.439 70.5022 98.4142 70.4548C98.3376 70.3084 98.2622 70.1604 98.1886 70.0105C98.1597 69.9515 98.1312 69.8922 98.1027 69.8327C98.0382 69.6981 97.9751 69.562 97.9132 69.4245C97.8831 69.3576 97.8539 69.29 97.8244 69.2224C97.7662 69.0889 97.7091 68.9542 97.6535 68.8181C97.633 68.768 97.612 68.7181 97.5919 68.6677C97.5248 68.4994 97.4596 68.3292 97.3966 68.157C97.3696 68.0829 97.3438 68.0081 97.3175 67.9333C97.2757 67.8142 97.2352 67.694 97.1955 67.573C97.171 67.4986 97.1458 67.4244 97.1222 67.3493C97.064 67.1646 97.0083 66.9777 96.9552 66.7888C96.9386 66.7296 96.9235 66.6697 96.9074 66.6101C96.8676 66.4628 96.8287 66.3145 96.7921 66.1648C96.7761 66.0992 96.7597 66.0336 96.7443 65.9675C96.7081 65.812 96.6744 65.655 96.6418 65.4968C96.6315 65.447 96.6194 65.3975 96.6095 65.3474C96.4598 64.5907 96.3675 63.8494 96.3244 63.1267C96.3158 62.9834 96.3104 62.8408 96.3058 62.699C96.3036 62.6317 96.2993 62.5647 96.298 62.4978C96.2952 62.3538 96.2968 62.2106 96.298 62.0681C96.2995 61.8947 96.3044 61.7226 96.3117 61.5515C96.3158 61.4554 96.3185 61.3597 96.3244 61.2644C96.3288 61.1925 96.3355 61.121 96.341 61.0495C96.3506 60.9232 96.3605 60.7975 96.3732 60.6726C96.382 60.586 96.3922 60.4998 96.4025 60.4138C96.416 60.3009 96.4305 60.1886 96.4464 60.0769C96.4585 59.9922 96.471 59.9079 96.4845 59.824C96.505 59.6965 96.5282 59.57 96.5519 59.4441C96.5636 59.3818 96.5736 59.3194 96.5861 59.2576C96.6232 59.0738 96.6635 58.8918 96.7072 58.7117C96.7251 58.6377 96.7448 58.5643 96.7638 58.4909C96.7929 58.379 96.8222 58.2675 96.8537 58.157C96.8788 58.0688 96.9061 57.9815 96.9328 57.8943C96.9585 57.8102 96.9847 57.7265 97.0119 57.6433C97.0467 57.5365 97.0822 57.4303 97.1193 57.3249C97.1457 57.2499 97.1737 57.1756 97.2013 57.1013C97.2221 57.0454 97.2405 56.9888 97.2619 56.9333L97.3224 56.782C97.3418 56.7335 97.3622 56.6856 97.382 56.6374C97.5392 56.2555 97.7118 55.8848 97.8976 55.5251C97.9146 55.4922 97.9312 55.4592 97.9484 55.4265C98.0041 55.3206 98.0612 55.2159 98.1193 55.112C98.1476 55.0615 98.1754 55.0108 98.2043 54.9607C98.2643 54.8564 98.3256 54.7533 98.3878 54.6511C98.4106 54.6137 98.4341 54.5769 98.4572 54.5398C98.7651 54.045 99.0989 53.5759 99.4552 53.1345C99.4791 53.1049 99.5024 53.075 99.5265 53.0456C99.6051 52.9498 99.6861 52.8565 99.7668 52.7634C99.7946 52.7313 99.8227 52.6995 99.8507 52.6677C99.9278 52.5803 100.005 52.4938 100.084 52.4089C100.112 52.3788 100.14 52.3488 100.168 52.3191C100.675 51.7831 101.214 51.2976 101.777 50.8669C101.905 50.7207 102.032 50.578 102.159 50.4382C102.175 50.4206 102.191 50.403 102.207 50.3855C102.391 50.1836 102.575 49.9891 102.755 49.8005C102.778 49.7768 102.8 49.7527 102.822 49.7292C103.04 49.5029 103.252 49.2861 103.457 49.0788C103.493 49.0426 103.528 49.0061 103.564 48.9704C103.797 48.7351 104.021 48.5124 104.23 48.3015C104.36 48.1699 104.484 48.0429 104.602 47.9206C104.757 47.7589 104.902 47.6056 105.031 47.4597C107.204 45.0091 110.804 41.158 111.024 40.7878C111.058 40.7306 111.121 40.702 111.207 40.699H111.21C111.296 40.6965 111.403 40.719 111.525 40.7634C111.608 40.794 111.698 40.837 111.793 40.8874C111.895 40.9415 112.003 41.0054 112.112 41.0798C112.126 41.0889 112.14 41.0968 112.153 41.1062C112.38 41.2639 112.615 41.4612 112.833 41.6882C112.857 41.7132 112.879 41.7406 112.902 41.7663C113.114 41.9966 113.307 42.2532 113.456 42.5281C113.467 42.5473 113.477 42.5663 113.487 42.5857C113.512 42.6325 113.535 42.6795 113.557 42.7273C113.574 42.7656 113.589 42.8047 113.605 42.8435C113.657 42.9745 113.697 43.1083 113.725 43.2439C113.73 43.2682 113.736 43.2927 113.74 43.3171C113.753 43.3925 113.747 43.4699 113.726 43.5495C113.725 43.5535 113.723 43.5573 113.722 43.5613C113.719 43.5708 113.715 43.58 113.712 43.5896C113.705 43.61 113.697 43.6304 113.689 43.6511C113.686 43.6575 113.684 43.6642 113.681 43.6706C113.675 43.6841 113.669 43.6981 113.662 43.7117C113.648 43.7391 113.633 43.7667 113.615 43.7947C113.611 43.8019 113.604 43.8079 113.6 43.8152C113.586 43.8367 113.57 43.8578 113.555 43.8796C113.524 43.9232 113.489 43.9676 113.451 44.0124C113.435 44.0311 113.418 44.0492 113.402 44.0681C113.365 44.1083 113.327 44.1498 113.286 44.1911C113.257 44.2209 113.226 44.2506 113.194 44.281C113.156 44.3166 113.117 44.353 113.076 44.3894C113.044 44.4186 113.01 44.4485 112.976 44.4783C112.933 44.5152 112.889 44.5528 112.843 44.5906C112.799 44.6269 112.754 44.6637 112.707 44.7009C112.682 44.7211 112.656 44.741 112.63 44.7615C112.529 44.8415 112.421 44.9217 112.31 45.0056C112.245 45.0546 112.18 45.1066 112.112 45.157C111.912 45.306 111.701 45.4619 111.482 45.6238C111.08 45.9201 110.653 46.239 110.226 46.5827C110.019 46.7489 109.813 46.9211 109.609 47.0993C109.607 47.1048 109.604 47.1104 109.602 47.1159C109.541 47.2862 109.432 47.4807 109.284 47.698C109.276 47.7099 109.268 47.7221 109.26 47.7341C109.12 47.9367 108.948 48.1584 108.752 48.3972C108.688 48.4752 108.622 48.5548 108.554 48.6365C108.395 48.8261 108.225 49.026 108.046 49.2341C107.728 49.606 107.386 50.0073 107.039 50.4314C107.004 50.5191 106.971 50.6083 106.941 50.698C106.936 50.7113 106.931 50.7246 106.927 50.738C106.864 50.9255 106.811 51.1171 106.769 51.3132C106.743 51.431 106.723 51.5506 106.705 51.6716C106.677 51.8669 106.659 52.0664 106.653 52.2702C106.65 52.3972 106.651 52.5257 106.656 52.656C106.661 52.7591 106.668 52.8632 106.678 52.9685C106.696 53.1488 106.718 53.3303 106.745 53.5124C106.948 54.8877 107.406 56.3083 108.04 57.6951C108.296 58.2536 108.58 58.807 108.888 59.3493C109.224 59.9405 109.589 60.518 109.974 61.0769C110.207 61.4145 110.447 61.7452 110.694 62.0671C111.007 61.5253 111.328 60.983 111.653 60.4402C111.783 60.2239 111.914 60.0079 112.046 59.7917C112.162 59.6007 112.279 59.4094 112.397 59.2185C112.507 59.0402 112.618 58.8624 112.729 58.6843C112.975 58.2895 113.224 57.8956 113.475 57.5027C113.596 57.3127 113.718 57.1227 113.84 56.9333C113.96 56.7484 114.08 56.564 114.2 56.3796C114.332 56.1786 114.463 55.9773 114.595 55.7771C114.735 55.5646 114.876 55.3527 115.018 55.1413C115.246 54.8005 115.475 54.4611 115.705 54.1238C115.85 53.9112 115.997 53.7 116.143 53.489C116.266 53.3101 116.39 53.1315 116.514 52.9538C116.649 52.7597 116.785 52.5663 116.921 52.3738C117.022 52.2308 117.123 52.0881 117.224 51.946C117.548 51.4901 117.875 51.0397 118.2 50.5945C118.273 50.4948 118.345 50.3947 118.418 50.2956C118.533 50.1399 118.647 49.985 118.762 49.8308C118.963 49.5598 119.164 49.2912 119.365 49.0251C119.435 48.9326 119.504 48.8397 119.574 48.7478C119.826 48.4173 120.076 48.0911 120.326 47.7693C120.453 47.6062 120.58 47.4446 120.706 47.2839C120.867 47.0797 121.027 46.8777 121.187 46.6775C121.303 46.531 121.419 46.3851 121.535 46.2409C121.703 46.0323 121.871 45.8265 122.038 45.6228C122.179 45.4508 122.319 45.2804 122.459 45.112C122.656 44.8752 122.852 44.6421 123.046 44.4128C123.144 44.2969 123.242 44.182 123.34 44.0681C123.514 43.8654 123.687 43.6665 123.859 43.4704C123.96 43.355 124.059 43.2398 124.159 43.1267C124.388 42.869 124.614 42.6176 124.837 42.3728C124.916 42.2868 124.995 42.2023 125.072 42.1179C125.255 41.9203 125.435 41.727 125.613 41.5388C125.697 41.4503 125.781 41.3634 125.864 41.2771C126.101 41.0307 126.333 40.7916 126.563 40.5632C126.725 40.4016 126.885 40.2447 127.043 40.0925C127.089 40.0486 127.135 40.0057 127.18 39.9626C127.509 39.6488 127.828 39.3561 128.137 39.0867C128.163 39.0642 128.188 39.0424 128.214 39.0202C128.356 38.8973 128.496 38.7796 128.633 38.6667C128.647 38.6553 128.66 38.6429 128.674 38.6316C128.977 38.3835 129.268 38.1615 129.545 37.9656C129.573 37.9458 129.6 37.9261 129.628 37.907C129.763 37.813 129.894 37.7248 130.023 37.6443C130.384 37.4173 130.785 37.1867 131.214 36.9499C131.307 36.8988 131.4 36.8452 131.495 36.7937C131.634 36.7191 131.776 36.6462 131.919 36.571C132.072 36.4911 132.226 36.4093 132.384 36.3288C132.517 36.261 132.652 36.1938 132.788 36.1257C132.935 36.0522 133.084 35.9778 133.235 35.904C133.433 35.807 133.634 35.7111 133.837 35.614C133.94 35.565 134.042 35.5146 134.146 35.4656C134.389 35.3503 134.636 35.2357 134.884 35.1208C134.933 35.0979 134.983 35.0744 135.032 35.0515C135.285 34.9351 135.539 34.8192 135.794 34.7038C135.894 34.6588 135.993 34.6139 136.093 34.5691C136.256 34.4956 136.42 34.4222 136.583 34.3493C136.765 34.2684 136.946 34.1881 137.127 34.1081C137.373 33.9995 137.618 33.8933 137.861 33.7868C138.668 33.4335 139.455 33.0909 140.192 32.7712C141.318 32.2825 142.325 31.8404 143.102 31.4763ZM54.0402 103.801C53.272 104.076 52.5663 104.341 51.923 104.592C51.5993 104.717 51.2911 104.839 50.9992 104.958C50.9534 104.976 50.9075 104.995 50.8625 105.013C51.3568 104.834 51.875 104.64 52.4074 104.436L54.0402 103.801ZM118.886 77.78C118.86 77.9025 118.831 78.0306 118.796 78.1628C118.786 78.2029 118.771 78.243 118.76 78.2839C118.872 78.0236 118.986 77.7697 119.097 77.5202C119.147 77.4075 119.195 77.2946 119.244 77.1843C119.247 77.1775 119.25 77.1705 119.253 77.1638C119.261 77.1458 119.269 77.128 119.277 77.1101L118.886 77.78Z" fill="#7A770E"/>
</g>
<path d="M73.4494 78.3278C90.0704 82.9719 101.151 80.7719 107.058 80.4664C111.132 75.5779 120.318 63.2343 115.919 67.634C110.419 73.1336 103.086 71.9114 87.5041 67.634C71.9219 63.3565 55.7855 60.3732 38.6188 55.7182C20.5922 50.83 16.3148 58.4681 20.5922 60.3013C24.8697 62.1345 52.6732 72.5227 73.4494 78.3278Z" fill="#FFF82E"/>
<path d="M93.9202 53.5798C95.6326 64.3566 102.231 70.7968 105.798 72.9045L113.137 58.8837C108.55 56.4094 103.046 48.7117 102.435 42.1136C101.823 35.5156 108.892 29.4675 108.586 27.543C108.28 25.6186 107.856 27.2026 107.327 27.5429C105.798 28.5261 104.881 28.3434 102.435 31.2759C96.9755 34.3312 92.2079 42.803 93.9202 53.5798Z" fill="#FFF942"/>
<path d="M148.912 81.1521C139.372 83.5714 135.56 78.9528 136.07 74.829L129.954 70.9801C143.816 67.8644 175.576 61.8528 191.721 62.7325C207.866 63.6123 213.737 66.3981 214.654 67.6811C215.164 69.4222 214.96 72.9045 210.067 72.9045C203.952 72.9045 160.838 78.128 148.912 81.1521Z" fill="#FFF942"/>
<path d="M147.694 77.7168C140.85 77.7168 141.38 67.125 142.5 61.8291L126.612 65.19C126.612 70.0785 130.5 82.2767 138.223 82.6054C152.583 83.2164 190.774 76.1892 217.05 72.8283C220.717 72.3593 218.578 65.19 215.828 65.19C217.356 69.1619 204.829 72.2172 191.996 72.8283C183.125 73.2507 156.249 77.7168 147.694 77.7168Z" fill="#FFF70F"/>
<path d="M194.46 60.3871C211.612 59.1843 216.046 64.1674 217.221 65.9418C217.171 65.9138 217.122 65.8848 217.069 65.8597C218.597 69.4008 209.125 71.6543 196.293 72.2982C187.421 72.7433 157.795 79.0589 149.24 79.0589C143.511 79.0588 140.369 73.7198 140.153 68.7074C156.889 65.2705 181.697 61.2821 194.46 60.3871ZM110.133 19.18C110.439 18.5368 112.882 20.4679 113.187 22.721C113.493 24.9745 104.633 28.5163 105.244 36.2425C105.855 43.9685 111.355 52.9818 115.937 55.8793L108.604 72.2982C105.04 69.8301 97.1591 62.2272 95.4482 49.6078C93.9404 38.4863 100.947 31.9596 103.392 28.5257C105.836 25.0919 109.888 19.6951 110.133 19.18Z" fill="#E3DB00"/>
<path opacity="0.15" d="M194.46 60.3871C211.612 59.1843 216.046 64.1674 217.221 65.9418C217.171 65.9138 217.122 65.8848 217.069 65.8597C218.597 69.4008 209.125 71.6543 196.293 72.2982C187.421 72.7433 157.795 79.0589 149.24 79.0589C143.511 79.0588 140.369 73.7198 140.153 68.7074C156.889 65.2705 181.697 61.2821 194.46 60.3871ZM110.133 19.18C110.439 18.5368 112.882 20.4679 113.187 22.721C113.493 24.9745 104.633 28.5163 105.244 36.2425C105.855 43.9685 111.355 52.9818 115.937 55.8793L108.604 72.2982C105.04 69.8301 97.1591 62.2272 95.4482 49.6078C93.9404 38.4863 100.947 31.9596 103.392 28.5257C105.836 25.0919 109.888 19.6951 110.133 19.18Z" fill="url(#paint0_linear_29_57)"/>
<path d="M104.614 71.9118C104.778 72.1165 104.621 72.6364 104.162 73.3088L100.146 85.715L70.509 79.9098L22.2348 61.8832C17.9573 60.9666 18.4832 57.0831 20.5922 57.5518C23.342 58.1629 21.2033 58.8385 35.0672 62.7997C45.7608 65.8551 69.172 74.0506 85.3653 78.328C95.716 81.0622 102.335 75.9813 104.162 73.3088L104.614 71.9118Z" fill="#DBD400"/>
<g style="mix-blend-mode:multiply" opacity="0.25">
<path d="M105.29 71.9509C105.44 72.1395 105.307 72.5734 104.907 73.1336L100.821 85.7541L71.1847 79.9489L22.9104 61.9222C18.633 61.0056 19.1589 57.1221 21.2679 57.5908C24.0176 58.202 21.8789 58.8776 35.7429 62.8388C46.4365 65.8942 69.4776 73.4395 85.6708 77.7169C96.2262 80.5052 103.146 75.5978 104.907 73.1336L105.29 71.9509Z" fill="url(#paint1_linear_29_57)"/>
</g>
<path d="M115.919 90.8547C114.208 84.0108 118.567 72.0135 120.807 66.4121C126.918 51.7465 139.934 21.4987 143.111 17.8323L147.083 5.9165C147.592 6.12019 147.9 9.81529 150.749 11.1106C154.11 12.6382 155.943 12.0272 158.388 11.1106V21.1932C158.388 30.0536 147.694 51.1354 143.722 59.3848C139.75 67.6342 140.972 79.8555 140.667 84.4385C140.422 88.1049 151.768 105.928 157.471 114.381C158.693 120.186 158.999 125.685 151.972 125.685C143.819 125.685 141.583 122.63 134.862 118.658C128.14 114.686 118.057 99.4096 115.919 90.8547Z" fill="#FFF942"/>
<g style="mix-blend-mode:plus-darker" opacity="0.5">
<path d="M115.919 90.8547C114.208 84.0108 118.567 72.0135 120.807 66.4121C126.918 51.7465 139.934 21.4987 143.111 17.8323L147.083 5.9165C147.592 6.12019 147.9 9.81529 150.749 11.1106C154.11 12.6382 155.943 12.0272 158.388 11.1106V21.1932C158.388 30.0536 147.694 51.1354 143.722 59.3848C139.75 67.6342 140.972 79.8555 140.667 84.4385C140.422 88.1049 151.768 105.928 157.471 114.381C158.693 120.186 158.999 125.685 151.972 125.685C143.819 125.685 141.583 122.63 134.862 118.658C128.14 114.686 118.057 99.4096 115.919 90.8547Z" fill="url(#paint2_linear_29_57)"/>
</g>
<path d="M143.722 58.7739C143.637 59.0775 143.563 59.3938 143.497 59.7212C140.042 67.932 141.163 79.417 140.869 83.8276C140.624 87.4942 151.969 105.317 157.672 113.77C158.699 118.646 159.079 123.306 155.009 124.672C157.697 121.685 158.818 120.323 156.451 114.686C153.499 107.659 139.14 88.5951 139.139 84.439C139.139 81.9947 139.75 65.8012 143.722 58.7739Z" fill="#E0D900"/>
<path d="M131.501 14.7771C135.634 11.5427 144.231 7.44428 147.083 5.61108V11.1107L118.974 70.9952C118.057 76.4948 112.008 89.2049 86.5875 94.8268C61.1671 100.449 45.4422 107.252 40.1463 110.409C37.5838 111.937 32.5081 112.853 31.5915 105.215C30.6749 97.5766 57.2557 86.546 71.3107 84.7442C82.0039 83.3733 99.4231 80.8818 103.392 65.8011C107.975 48.3857 124.473 20.2767 131.501 14.7771Z" fill="#FFF942"/>
<g style="mix-blend-mode:darken" opacity="0.3">
<path d="M131.501 14.7771C135.634 11.5427 144.231 7.44428 147.083 5.61108V11.1107L118.974 70.9952C118.057 76.4948 112.008 89.2049 86.5875 94.8268C61.1671 100.449 45.4422 107.252 40.1463 110.409C37.5838 111.937 32.5081 112.853 31.5915 105.215C30.6749 97.5766 57.2557 86.546 71.3107 84.7442C82.0039 83.3733 99.4231 80.8818 103.392 65.8011C107.975 48.3857 124.473 20.2767 131.501 14.7771Z" fill="url(#paint3_linear_29_57)"/>
</g>
<path d="M120.259 68.5508C119.976 69.5936 119.655 70.7355 119.301 71.96L119.037 72.5225C118.983 72.8454 118.913 73.1987 118.827 73.5781C118.566 74.4593 118.289 75.3749 117.998 76.3203C115.526 82.9041 108.224 92.965 87.1981 96.0488C64.2833 99.4098 45.035 112.242 39.2928 112.242C36.8356 112.242 35.0179 111.844 33.7714 110.374C35.1809 110.713 36.8514 110.563 37.7645 110.715C39.5977 111.02 49.6804 105.521 54.2635 103.382C58.8465 101.243 81.1507 94.8264 95.8163 90.8545C107.549 87.6769 117.509 78.6334 120.259 68.5508Z" fill="#DBD400"/>
<g style="mix-blend-mode:multiply" opacity="0.3" filter="url(#filter1_n_29_57)">
<path d="M147.083 5.61108V5.91675C147.592 6.12044 147.9 9.8158 150.75 11.1111C154.11 12.6384 155.944 12.0276 158.388 11.1111V21.1931C158.388 30.0534 147.695 51.1348 143.723 59.3845C143.369 60.1202 143.056 60.8879 142.779 61.6785C142.523 62.4761 142.3 63.2942 142.108 64.1257C141.932 65.4491 141.821 66.9106 141.83 68.3699C158.508 65.0148 182.115 61.2522 194.459 60.3865C210.656 59.2506 215.511 63.6323 216.991 65.6179C219.083 67.1674 220.173 72.4283 217.05 72.8279C192.276 75.9966 156.911 82.4239 140.913 82.6365C140.905 83.0753 140.893 83.4745 140.869 83.8279C140.626 87.4952 151.97 105.317 157.673 113.77C158.324 116.862 158.711 119.865 157.872 121.999C157.271 124.217 155.601 125.685 151.972 125.685C143.819 125.685 141.584 122.63 134.862 118.658C128.141 114.686 118.058 99.4102 115.919 90.8552C115.138 87.7321 115.623 83.5359 116.592 79.364C113.122 85.6685 105.182 93.411 87.1983 96.0486C64.2835 99.4095 45.0351 112.242 39.293 112.242C36.9239 112.242 35.1516 111.87 33.9102 110.526C32.8031 109.627 31.924 107.983 31.5919 105.215C30.6759 97.5764 57.2556 86.5459 71.3106 84.7439C74.9465 84.2778 79.3599 83.6807 83.7579 82.5046L70.5088 79.9099L22.2354 61.8835C19.5379 61.3055 18.7511 59.5473 19.0665 58.4451C18.8603 55.7149 24.5562 51.9051 38.6192 55.7185C55.7856 60.3735 71.922 63.3562 87.504 67.6335C93.061 69.159 97.5697 70.2937 101.319 70.8757C101.528 70.5156 101.726 70.1455 101.914 69.7654C98.6618 66.4635 95.11 61.0696 93.92 53.5798C92.4993 44.6383 95.5417 37.2855 99.7364 33.2947C101.14 31.2892 102.542 29.7204 103.392 28.5261C105.836 25.0923 109.887 19.6945 110.132 19.1794C110.438 18.5369 112.882 20.4686 113.188 22.7214C113.353 23.9494 110.799 25.5608 108.538 28.0222C108.264 29.0285 106.979 30.6627 105.65 32.6873C105.306 33.7631 105.141 34.9434 105.243 36.2419C105.581 40.5139 107.415 45.1793 109.761 48.9871C116.65 34.1384 126.487 18.7015 131.501 14.7771C135.634 11.5427 144.231 7.44433 147.083 5.61108ZM46.1895 107.376C44.7491 108.017 43.4999 108.614 42.4434 109.153C43.6061 108.629 44.8878 108.015 46.1895 107.376ZM119.421 70.0437L118.975 70.9949C118.937 71.2196 118.889 71.4561 118.833 71.7039C119.03 71.1317 119.227 70.5771 119.421 70.0437Z" fill="url(#paint4_linear_29_57)" fill-opacity="0.6"/>
</g>
<path d="M155.156 7.11637C154.423 6.38309 151.999 5.38501 150.879 5.28316C146.601 4.06103 145.073 7.11637 145.685 8.3385C146.296 9.56064 152.101 12.9215 154.851 12.616C157.05 12.3715 158.897 11.4162 159.304 10.4996C157.777 10.4996 156.073 8.03297 155.156 7.11637Z" fill="#747007"/>
<g style="mix-blend-mode:multiply" opacity="0.5">
<path d="M145.712 7.53271C146.451 8.79392 152.137 12.0627 154.85 11.7612C156.102 11.6221 157.181 11.1451 157.955 10.5923C158.326 10.8547 158.682 10.9631 158.999 10.8052C158.591 11.7216 157.226 12.3937 155.027 12.6382C152.277 12.9437 146.472 9.58311 145.861 8.36084C145.738 8.11566 145.685 7.82988 145.712 7.53271Z" fill="#7A770E"/>
</g>
<defs>
<filter id="filter0_f_29_57" x="-0.00109863" y="0.664795" width="237.819" height="146.16" filterUnits="userSpaceOnUse" color-interpolation-filters="sRGB">
<feFlood flood-opacity="0" result="BackgroundImageFix"/>
<feBlend mode="normal" in="SourceGraphic" in2="BackgroundImageFix" result="shape"/>
<feGaussianBlur stdDeviation="15" result="effect1_foregroundBlur_29_57"/>
</filter>
<filter id="filter1_n_29_57" x="19.001" y="5.61108" width="199.999" height="120.074" filterUnits="userSpaceOnUse" color-interpolation-filters="sRGB">
<feFlood flood-opacity="0" result="BackgroundImageFix"/>
<feBlend mode="normal" in="SourceGraphic" in2="BackgroundImageFix" result="shape"/>
<feTurbulence type="fractalNoise" baseFrequency="2 2" stitchTiles="stitch" numOctaves="3" result="noise" seed="4045" />
<feColorMatrix in="noise" type="luminanceToAlpha" result="alphaNoise" />
<feComponentTransfer in="alphaNoise" result="coloredNoise1">
<feFuncA type="discrete" tableValues="0 0 0 0 0 0 0 0 0 0 0 0 0 0 0 0 0 0 1 1 1 1 1 1 1 1 1 1 1 1 1 0 0 0 0 0 0 0 0 0 0 0 0 0 0 0 0 0 0 0 0 0 0 0 0 0 0 0 0 0 0 0 0 0 0 0 0 0 0 0 0 0 0 0 0 0 0 0 0 0 0 0 0 0 0 0 0 0 0 0 0 0 0 0 0 0 0 0 0 0 "/>
</feComponentTransfer>
<feComposite operator="in" in2="shape" in="coloredNoise1" result="noise1Clipped" />
<feComponentTransfer in="alphaNoise" result="coloredNoise2">
<feFuncA type="discrete" tableValues="0 0 0 0 0 0 0 0 0 0 0 0 0 0 0 0 0 0 0 0 0 0 0 0 0 0 0 0 0 0 0 0 0 0 0 0 0 0 0 0 0 0 0 0 0 0 0 0 0 0 0 0 0 0 0 0 0 0 0 0 0 0 0 0 0 0 0 0 0 1 1 1 1 1 1 1 1 1 1 1 1 1 0 0 0 0 0 0 0 0 0 0 0 0 0 0 0 0 0 0 "/>
</feComponentTransfer>
<feComposite operator="in" in2="shape" in="coloredNoise2" result="noise2Clipped" />
<feFlood flood-color="#B0AB1E" result="color1Flood" />
<feComposite operator="in" in2="noise1Clipped" in="color1Flood" result="color1" />
<feFlood flood-color="#747007" result="color2Flood" />
<feComposite operator="in" in2="noise2Clipped" in="color2Flood" result="color2" />
<feMerge result="effect1_noise_29_57">
<feMergeNode in="shape" />
<feMergeNode in="color1" />
<feMergeNode in="color2" />
</feMerge>
</filter>
<linearGradient id="paint0_linear_29_57" x1="102.476" y1="19.0542" x2="278.769" y2="121.101" gradientUnits="userSpaceOnUse">
<stop stop-color="#E3DB00"/>
<stop offset="0.6051" stop-color="#B1AB00"/>
<stop offset="1" stop-color="#7D7900"/>
</linearGradient>
<linearGradient id="paint1_linear_29_57" x1="28.9063" y1="64.6181" x2="134.926" y2="71.6454" gradientUnits="userSpaceOnUse">
<stop stop-color="#FFF942"/>
<stop offset="0.492298" stop-color="#D7D138"/>
<stop offset="1" stop-color="#999528"/>
</linearGradient>
<linearGradient id="paint2_linear_29_57" x1="139.75" y1="-42.0522" x2="139.139" y2="150.739" gradientUnits="userSpaceOnUse">
<stop stop-color="#999528"/>
<stop offset="0.621548" stop-color="#E1DC3B"/>
<stop offset="1" stop-color="#FFF942"/>
</linearGradient>
<linearGradient id="paint3_linear_29_57" x1="-68.6234" y1="136.99" x2="279.99" y2="-76.5773" gradientUnits="userSpaceOnUse">
<stop stop-color="#999528"/>
<stop offset="0.426491" stop-color="#B9B530"/>
<stop offset="1" stop-color="#FFF942"/>
</linearGradient>
<linearGradient id="paint4_linear_29_57" x1="160.156" y1="-26.1643" x2="128.686" y2="59.9956" gradientUnits="userSpaceOnUse">
<stop offset="0.0144231" stop-color="#12DB00"/>
<stop offset="0.990385" stop-color="#757100"/>
</linearGradient>
</defs>
</svg>
